<?xml version="1.0" standalone="no"?><svg xmlns="http://www.w3.org/2000/svg" viewBox="0 0 1440 320"><path fill="#FF0066" fill-opacity="1" d="M0,64L20,90.7C40,117,80,171,120,181.3C160,192,200,160,240,165.3C280,171,320,213,360,218.7C400,224,440,192,480,186.7C520,181,560,203,600,197.3C640,192,680,160,720,122.7C760,85,800,43,840,58.7C880,75,920,149,960,154.7C1000,160,1040,96,1080,80C1120,64,1160,96,1200,122.7C1240,149,1280,171,1320,154.7C1360,139,1400,85,1420,58.7L1440,32L1440,320L1420,320C1400,320,1360,320,1320,320C1280,320,1240,320,1200,320C1160,320,1120,320,1080,320C1040,320,1000,320,960,320C920,320,880,320,840,320C800,320,760,320,720,320C680,320,640,320,600,320C560,320,520,320,480,320C440,320,400,320,360,320C320,320,280,320,240,320C200,320,160,320,120,320C80,320,40,320,20,320L0,320Z"></path></svg>